PathFileType	4	(X/Y/Z)	Patient4_TMGait_0pt8_01_right_27.trc.trc
DataRate	CameraRate	NumFrames	NumMarkers	Units	OrigDataRate	OrigDataStartFrame	OrigNumFrames
92.715231788079	92.715231788079	6	33	mm	92.715231788079	71	       141
Frame#	Time	Sacral			L.Shoulder			Chest			R.Shoulder			Neck			R.ASIS			L.ASIS			R.Thigh.Superior			R.Thigh.Lateral			R.Thigh.Inferior			R.Patella			L.Thigh.Superior			L.Thigh.Lateral			L.Thigh.Inferior			L.Patella			L.Shank.Superior			L.Shank.Lateral			L.Shank.Inferior			R.Shank.Superior			R.Shank.Lateral			R.Shank.Inferior			R.Heel			R.Midfoot.Superior			R.Midfoot.Lateral			R.Toe			L.Heel			L.Midfoot.Lateral			L.Midfoot.Superior			L.Toe			L.Elbow			L.Wrist			R.Elbow			R.Wrist			
		X1	Y1	Z1	X2	Y2	Z2	X3	Y3	Z3	X4	Y4	Z4	X5	Y5	Z5	X6	Y6	Z6	X7	Y7	Z7	X8	Y8	Z8	X9	Y9	Z9	X10	Y10	Z10	X11	Y11	Z11	X12	Y12	Z12	X13	Y13	Z13	X14	Y14	Z14	X15	Y15	Z15	X16	Y16	Z16	X17	Y17	Z17	X18	Y18	Z18	X19	Y19	Z19	X20	Y20	Z20	X21	Y21	Z21	X22	Y22	Z22	X23	Y23	Z23	X24	Y24	Z24	X25	Y25	Z25	X26	Y26	Z26	X27	Y27	Z27	X28	Y28	Z28	X29	Y29	Z29	X30	Y30	Z30	X31	Y31	Z31	X32	Y32	Z32	X33	Y33	Z33	

71	30.955000000000	866.520752346490	1009.970445125730	519.280214166293	1070.019699190737	1426.763643642559	344.937636843859	1170.241128513849	1345.109920702999	502.076070274871	1099.208549012435	1424.140075522674	678.770461431747	1076.428140433410	1485.111245597198	501.244175729513	1084.097152362186	936.568128024671	641.558993922333	1078.476204043963	948.036507808478	365.229402636388	1076.964557862239	723.817235719039	619.382766847698	964.580563383609	634.712646177247	673.207265255798	1029.723629813011	566.341590847525	599.881133371989	1010.187056316652	483.772294233797	603.906128199200	1147.353528540223	775.283238102203	396.467708340182	1111.667110485484	648.798882941951	304.198633875838	1214.782096931283	592.855045022102	370.512276491892	1246.491126364464	531.804273414534	364.653344402869	1235.127246817094	459.861732531613	350.776465734858	1180.711715297270	326.460745031426	295.342204599990	1275.600802627143	233.485109876346	348.824740592671	973.373211717566	400.143151595229	607.886274628023	888.005556436718	304.094267551532	663.999932517843	926.441760282836	205.744197783391	603.207391991837	782.611841164188	44.013794866670	564.877870179326	953.748241761290	97.106449587243	606.895844836851	863.076626227036	37.064652693931	641.628894694331	1071.868962751082	42.032242601713	638.286711485025	1207.499430715400	46.989791221407	382.000128435591	1284.057559635588	56.750839701470	304.836987991808	1348.475530519852	139.414170282887	328.005588379343	1484.810914465658	118.936668500730	307.403727582574	924.836198296744	1109.965994031835	231.097595943612	884.169763985499	853.801536597613	216.490297452913	1230.938978888247	1118.039113710911	798.794793061220	1459.561308651597	1199.747881396198	732.940827067167	
72	30.965785714286	867.250932070908	1007.944497603361	518.062683824972	1068.662070123185	1425.365657732865	343.423344278903	1169.439226227205	1344.104293523940	500.373363082878	1098.448804311882	1423.003389984780	677.112683611201	1075.055375037475	1483.669518284107	499.765002453919	1085.126951947318	934.883573322590	640.012457520358	1079.248539276994	946.462562568442	363.634798243735	1076.459621258620	721.723661075186	617.325651369882	963.687858822214	633.368057685807	672.104662448267	1027.467325841821	564.595520168479	598.012530434050	1007.028046467649	481.849642957784	602.084299980933	1148.512529877598	773.697089016305	395.243923480767	1111.447204445544	646.110064157436	304.745846150503	1215.422846784877	590.946076692500	369.670493147825	1246.201972377529	529.127571342183	364.853181951252	1234.329419948601	456.510298541671	351.453562608850	1178.060678490102	323.637505359136	297.113557255087	1271.904565477041	229.930944134012	350.690067144804	969.253464932309	398.390718274768	606.517231701017	883.091461819724	303.433285422394	663.288015588319	919.571068486579	204.659769647557	602.315011281535	773.923408169283	43.823692336717	564.801215537282	944.940906341687	96.924999800306	606.638634967811	854.329556200364	36.902763923592	641.528872660730	1063.076516915514	42.081859419455	638.314721563357	1201.737264926663	45.189761679399	385.069758900240	1277.592625296988	53.775016800182	307.119086254259	1343.412253031983	135.026518156987	329.826106234319	1479.079414130785	112.347197463221	307.861779309931	921.608857850719	1109.951679599038	229.754618338802	876.743950618389	854.603520078752	214.615726910502	1235.077454811097	1120.076501404302	796.410450498284	1457.654334251584	1213.280437609671	727.747995429051	
73	30.976571428571	868.138908593345	1005.701512357776	516.658928598992	1067.231653997925	1423.768355149851	341.693246391317	1168.600317308307	1343.088684624598	498.530271367395	1097.471836588072	1421.836395143480	675.254140488153	1073.572063480624	1482.126486227728	498.043876745600	1086.328439517032	933.082203149482	638.428889501276	1080.320553707686	944.765247467209	362.046811015490	1076.458265597087	719.527091779231	615.212368186692	963.420346297244	631.780765747546	670.919701438610	1025.937803461394	562.648989115729	596.083768788096	1004.562353652853	479.639630255227	600.125081556895	1150.340461797439	772.001217560857	393.992302121800	1111.745492462362	643.362583479353	305.524092987071	1216.582963513535	588.889530799342	369.046891432583	1246.180857332870	525.983266341608	365.349130024422	1233.490497504997	452.690406872049	352.326437025969	1174.755690081308	320.735764819257	298.778843415114	1266.848960700899	225.732965162346	352.600834328679	965.743700033303	396.380768369145	605.024756704203	878.672876044117	302.648793232934	662.524942060860	912.936535505036	203.433655783919	601.344362665596	765.251717707729	43.670127636099	564.729233694403	936.164439698637	96.736843901079	606.336279217866	845.613780088245	36.754280351531	641.428742322648	1054.311128669236	42.061861894721	638.353947461197	1193.389082861276	43.370073848467	387.824404817790	1268.594082622489	50.498902793301	309.096057441028	1336.324918429774	129.744451745356	331.635486502226	1471.175557350106	103.962920659625	308.236420084986	918.897005955034	1109.366779906464	228.338558022781	870.326189147134	854.842042163568	212.652059639223	1238.620114163795	1121.910335296067	793.957067304723	1454.841048828777	1225.660533142375	722.620757575165	
74	30.987357142857	869.167645879035	1003.280591416986	515.094026252806	1065.759519961245	1422.000606354853	339.754721694345	1167.745511829129	1342.081134316665	496.555788983264	1096.291194337445	1420.658582321955	673.196702934277	1072.015921224492	1480.513373595534	496.080036775851	1087.683132726835	931.187349598199	636.823761703409	1081.650246712730	942.985920909089	360.490584112047	1076.954907644165	717.251055008717	613.096336814865	963.737053920178	629.968106961247	669.639463522471	1025.134234598496	560.511264151154	594.120915218726	1002.799743106507	477.132950463225	598.047583505005	1152.739745091496	770.176640250745	392.744020600454	1112.525920063978	640.657391275755	306.392973060253	1218.137246653837	586.705303945448	368.660664381054	1246.359293722258	522.502650500377	366.097590576179	1232.653059132847	448.602490325552	353.312387368696	1171.118761159194	317.853850357174	300.196363612214	1260.896360553302	221.168668769732	354.465346996613	962.819927789671	394.136887981154	603.409850532108	874.713697486868	301.776803378482	661.696800914345	906.527875136537	202.106019677492	600.308169453159	756.595208304646	43.606682828787	564.671041152216	927.441354278625	96.560290458251	605.997294587181	836.934774850918	36.653049044128	641.332768231021	1045.584315485903	41.959089073521	638.405605512846	1183.212043252914	41.647236424720	390.152840675072	1257.865762034864	47.157204208671	310.713748051358	1327.833772902916	123.966698959166	333.388449987758	1461.782334082168	94.458502725794	308.608465481165	916.727050168793	1108.229624175535	226.828502979204	864.980404301382	854.499967093934	210.614470615661	1241.545008939616	1123.482094430845	791.470381889493	1451.234818740341	1236.828601670174	717.584102427793	
75	30.998142857143	870.308531768359	1000.742574936890	513.407095207425	1064.282436302219	1420.107882252164	337.622886266262	1166.898900070876	1341.106511115215	494.462672593922	1094.942497002585	1419.504035627828	670.953998271258	1070.433675284813	1478.876343407141	493.880772113013	1089.164785488694	929.235150866651	635.206104197999	1083.173497045761	941.190260554208	358.981682134322	1077.924086932802	714.936657599049	611.011899652611	964.588730332626	627.965829288705	668.248374597918	1025.044490446282	558.213651252635	592.140422663257	1001.750801931347	474.336141995052	595.880825766872	1155.574150222753	768.255228665275	391.528758905533	1113.749523833797	638.125773912943	307.192419564667	1219.959263299603	584.469863269408	368.501533955416	1246.694831237442	518.882956191249	367.007337888184	1231.882583289064	444.483553639297	354.307821214670	1167.478229200915	315.124199866967	301.233857079757	1254.514126936683	216.551682299413	356.184967960145	960.452910096790	391.704454625679	601.684094334516	871.172604546777	300.875678010173	660.791744636512	900.338721521766	200.738468228505	599.223970157797	747.954753255111	43.715728049082	564.635800571828	918.803996596972	96.419392219288	605.636404381899	828.299079087570	36.647766685315	641.244231567336	1036.907781441126	41.765553799148	638.468670326943	1171.982689018457	40.142799707873	391.988465350139	1246.210599873224	43.993233321167	311.945379748482	1318.546146700459	118.133644395140	335.026752422475	1451.566582220631	84.593831896978	309.014979087507	915.133852195041	1106.578024958391	225.211667013072	860.767983277094	853.580153723170	208.522167052652	1243.827776775945	1124.733790343354	788.984929672513	1446.947681489434	1246.734574285324	712.660776753695	
76	31.008928571429	871.523442552557	998.169045397521	511.647439838034	1062.838352342055	1418.151912600952	335.322110225762	1166.084712308748	1340.196048917456	492.267662783114	1093.484769895399	1418.421175577954	668.554418276219	1068.876833569077	1477.274926498893	491.464706003866	1090.739009214270	927.276834781753	633.576270706063	1084.809865684273	939.463846510736	357.521079446376	1079.322438673827	712.644038164291	608.970257044380	965.927058949037	625.827151108839	666.731400669324	1025.652939440113	555.809766214141	590.150014464680	1001.434685099745	471.274016800884	593.667046244451	1158.678517003531	766.320803333996	390.366797678250	1115.374230941629	635.913792705586	307.763218167373	1221.929652955836	582.307422040785	368.528474113418	1247.167307180077	515.359783171815	367.953113339389	1231.251087918192	440.572845923743	355.205497777139	1164.121822833299	312.691077907260	301.783673371577	1248.110767206837	212.183702506218	357.667964838156	958.619443827885	389.148113006855	599.872042346634	868.014786452327	300.025313302549	659.804505744074	894.373742205973	199.412687601304	598.114656630242	739.337138576103	44.110949643329	564.632124510786	910.296001747620	96.342628998229	605.274316599611	819.715921160158	36.803427226021	641.165950679801	1028.292741381516	41.480183985340	638.539605108239	1160.402137763270	38.950636390480	393.312030726838	1234.335794282131	41.215339554284	312.792877843200	1308.983078172241	112.663392851140	336.487960899768	1441.102739738780	75.117392916881	309.451341541707	914.156499247500	1104.469133971928	223.484894704485	857.746695249327	852.107116557474	206.397129441067	1245.440363130459	1125.612047230711	786.533192282659	1442.089304346555	1255.335240074771	707.870070470903	
